<?xml version="1.0" encoding="UTF-8" standalone="no"?>
<svg
   width="20px"
   height="20px"
   viewBox="0 0 20 20"
   version="1.1"
   id="svg1"
   sodipodi:docname="ovalPoints.svg"
   inkscape:version="1.3 (0e150ed6c4, 2023-07-21)"
   xmlns:inkscape="http://www.inkscape.org/namespaces/inkscape"
   xmlns:sodipodi="http://sodipodi.sourceforge.net/DTD/sodipodi-0.dtd"
   xmlns="http://www.w3.org/2000/svg"
   xmlns:svg="http://www.w3.org/2000/svg"
   xmlns:rdf="http://www.w3.org/1999/02/22-rdf-syntax-ns#"
   xmlns:cc="http://creativecommons.org/ns#"
   xmlns:dc="http://purl.org/dc/elements/1.1/">
  <sodipodi:namedview
     id="namedview1"
     pagecolor="#505050"
     bordercolor="#ffffff"
     borderopacity="1"
     inkscape:showpageshadow="0"
     inkscape:pageopacity="0"
     inkscape:pagecheckerboard="1"
     inkscape:deskcolor="#505050"
     showgrid="false"
     inkscape:zoom="42.3"
     inkscape:cx="10"
     inkscape:cy="10"
     inkscape:window-width="1920"
     inkscape:window-height="1027"
     inkscape:window-x="3832"
     inkscape:window-y="-8"
     inkscape:window-maximized="1"
     inkscape:current-layer="svg1" />
  <!-- Generator: Sketch 43.2 (39069) - http://www.bohemiancoding.com/sketch -->
  <title
     id="title1">oval</title>
  <desc
     id="desc1">Created with Sketch.</desc>
  <defs
     id="defs1" />
  <path
     id="oval-icon"
     style="color:#000000;fill:#575e75;fill-rule:evenodd;stroke:none;stroke-width:1.5;-inkscape-stroke:none"
     d="M 8.7109375 4.3964844 C 6.5802971 4.8880266 4.8963873 6.5700121 4.4003906 8.6992188 L 5.9511719 8.6992188 C 6.3682216 7.3903015 7.4006556 6.363094 8.7109375 5.9492188 L 8.7109375 4.3964844 z M 11.289062 4.3964844 L 11.289062 5.9492188 C 12.599344 6.363094 13.631778 7.3903015 14.048828 8.6992188 L 15.599609 8.6992188 C 15.103613 6.5700121 13.419703 4.8880266 11.289062 4.3964844 z M 4.40625 11.324219 C 4.9090796 13.442002 6.588617 15.111568 8.7109375 15.601562 L 8.7109375 14.050781 C 7.4085035 13.639398 6.3808646 12.621982 5.9589844 11.324219 L 4.40625 11.324219 z M 14.041016 11.324219 C 13.619135 12.621982 12.591496 13.639398 11.289062 14.050781 L 11.289062 15.601562 C 13.411383 15.111568 15.09092 13.442002 15.59375 11.324219 L 14.041016 11.324219 z " />
  <g
     id="Page-1-3"
     stroke="none"
     stroke-width="4.80682"
     fill="none"
     fill-rule="evenodd"
     transform="matrix(0.20803783,0,0,0.20803783,7.9196217,2.9432624)">
    <g
       id="oval-7"
       stroke-width="7.21023"
       stroke="#575e75">
      <circle
         id="oval-icon-3"
         cx="10"
         cy="10"
         r="5"
         style="stroke-width:7.21023" />
    </g>
  </g>
  <g
     id="Page-1-3-4"
     stroke="none"
     stroke-width="4.80682"
     fill="none"
     fill-rule="evenodd"
     transform="matrix(0.20803783,0,0,0.20803783,7.9196217,12.919622)">
    <g
       id="oval-7-2"
       stroke-width="7.21023"
       stroke="#575e75">
      <circle
         id="oval-icon-3-4"
         cx="10"
         cy="10"
         r="5"
         style="stroke-width:7.21023" />
    </g>
  </g>
  <g
     id="Page-1-3-9"
     stroke="none"
     stroke-width="4.80682"
     fill="none"
     fill-rule="evenodd"
     transform="matrix(0.20803783,0,0,0.20803783,12.919622,7.9196217)">
    <g
       id="oval-7-6"
       stroke-width="7.21023"
       stroke="#575e75">
      <circle
         id="oval-icon-3-7"
         cx="10"
         cy="10"
         r="5"
         style="stroke-width:7.21023" />
    </g>
  </g>
  <g
     id="Page-1-3-44"
     stroke="none"
     stroke-width="4.80682"
     fill="none"
     fill-rule="evenodd"
     transform="matrix(0.20803783,0,0,0.20803783,2.9196217,7.9196217)">
    <g
       id="oval-7-5"
       stroke-width="7.21023"
       stroke="#575e75">
      <circle
         id="oval-icon-3-8"
         cx="10"
         cy="10"
         r="5"
         style="stroke-width:7.21023" />
    </g>
  </g>
  <metadata
     id="metadata1">
    <rdf:RDF>
      <cc:Work
         rdf:about="">
        <dc:title>oval</dc:title>
      </cc:Work>
    </rdf:RDF>
  </metadata>
</svg>
