<!DOCTYPE svg PUBLIC "-//W3C//DTD SVG 1.1//EN" "http://www.w3.org/Graphics/SVG/1.1/DTD/svg11.dtd">
<!-- Uploaded to: SVG Repo, www.svgrepo.com, Transformed by: SVG Repo Mixer Tools -->
<svg fill="#000000" width="24px" height="24px" viewBox="0 0 24 24" id="export-2" data-name="Flat Color" xmlns="http://www.w3.org/2000/svg" class="icon flat-color">
<g id="SVGRepo_bgCarrier" stroke-width="0"/>
<g id="SVGRepo_tracerCarrier" stroke-linecap="round" stroke-linejoin="round"/>
<g id="SVGRepo_iconCarrier">
<path id="secondary" d="M21,2H15a1,1,0,0,0,0,2h3.59l-8.3,8.29a1,1,0,0,0,0,1.42,1,1,0,0,0,1.42,0L20,5.41V9a1,1,0,0,0,2,0V3A1,1,0,0,0,21,2Z" style="fill: #FF8C00;"/>
<path id="primary" d="M20,22H4a2,2,0,0,1-2-2V4A2,2,0,0,1,4,2h7a1,1,0,0,1,0,2H4V20H20V13a1,1,0,0,1,2,0v7A2,2,0,0,1,20,22Z" style="fill: #575E75;"/>
</g>
</svg>