<!DOCTYPE svg PUBLIC "-//W3C//DTD SVG 1.1//EN" "http://www.w3.org/Graphics/SVG/1.1/DTD/svg11.dtd">
<!-- Uploaded to: SVG Repo, www.svgrepo.com, Transformed by: SVG Repo Mixer Tools -->
<svg fill="#575E75" width="24px" height="24px" viewBox="0 0 32 32" style="fill-rule:evenodd;clip-rule:evenodd;stroke-linejoin:round;stroke-miterlimit:2;" version="1.1" xml:space="preserve" xmlns="http://www.w3.org/2000/svg" xmlns:serif="http://www.serif.com/" xmlns:xlink="http://www.w3.org/1999/xlink">
<g id="SVGRepo_bgCarrier" stroke-width="0"/>
<g id="SVGRepo_tracerCarrier" stroke-linecap="round" stroke-linejoin="round"/>
<g id="SVGRepo_iconCarrier">
<path d="M1,5.998l0,16.002c-0,1.326 0.527,2.598 1.464,3.536c0.938,0.937 2.21,1.464 3.536,1.464c5.322,0 14.678,-0 20,0c1.326,0 2.598,-0.527 3.536,-1.464c0.937,-0.938 1.464,-2.21 1.464,-3.536c0,-3.486 0,-8.514 0,-12c0,-1.326 -0.527,-2.598 -1.464,-3.536c-0.938,-0.937 -2.21,-1.464 -3.536,-1.464c-0,0 -10.586,0 -10.586,0c0,-0 -3.707,-3.707 -3.707,-3.707c-0.187,-0.188 -0.442,-0.293 -0.707,-0.293l-5.002,0c-2.76,0 -4.998,2.238 -4.998,4.998Zm3.792,11.499l1.755,-3.009c0.537,-0.921 1.524,-1.488 2.591,-1.488c0,0 13.815,0 13.815,0c1.067,0 2.053,0.567 2.591,1.488c0.904,1.55 1.028,1.762 1.788,3.066c0.278,0.477 0.891,0.638 1.368,0.36c0.477,-0.278 0.638,-0.891 0.36,-1.368c-0.761,-1.304 -0.885,-1.516 -1.789,-3.065c-0.896,-1.536 -2.54,-2.481 -4.318,-2.481c-3.354,0 -10.462,0 -13.815,0c-1.778,0 -3.423,0.945 -4.319,2.481c0,-0 -1.755,3.009 -1.755,3.009c-0.278,0.476 -0.117,1.089 0.36,1.367c0.477,0.278 1.089,0.117 1.368,-0.36Z"/>
<g id="Icon"/>
</g>
</svg>